<svg xmlns="http://www.w3.org/2000/svg" xmlns:xlink="http://www.w3.org/1999/xlink" width="520" height="82" viewBox="0 0 520 82">
    <defs>
        <path id="a" d="M0 .28h85.57V82H0z"/>
        <path id="c" d="M0 82.72h519.26V1H0z"/>
    </defs>
    <g fill="none" fill-rule="evenodd" transform="translate(0 -1)">
        <g transform="translate(0 .72)">
            <mask id="b" fill="#fff">
                <use xlink:href="#a"/>
            </mask>
            <path fill="#FBAF33" d="M4.22 17.927c-.23-2.092-1.357-3.74-2.514-3.673-1.157.07-1.902 1.829-1.66 3.923.236 2.085 1.36 3.713 2.511 3.643 1.148-.07 1.894-1.808 1.663-3.893m4.917 6.455c-.5-2.022-1.853-3.474-3.02-3.236-1.17.237-1.706 2.076-1.2 4.1.508 2.016 1.856 3.453 3.018 3.212 1.163-.24 1.7-2.06 1.202-4.076m5.772 6.04c-.398-2.06-1.69-3.58-2.884-3.391-1.2.194-1.838 2.027-1.433 4.089.406 2.058 1.697 3.562 2.888 3.367 1.184-.194 1.827-2.01 1.43-4.064m3.094 1.976c-1.222.147-1.968 1.976-1.66 4.08.301 2.098 1.532 3.673 2.748 3.524 1.213-.151 1.957-1.961 1.661-4.057-.296-2.102-1.527-3.692-2.749-3.547m5.9 4.587c-1.248.1-2.095 1.928-1.89 4.076.203 2.137 1.375 3.78 2.616 3.675 1.234-.107 2.08-1.915 1.885-4.051-.197-2.142-1.367-3.801-2.612-3.7m6.454 12.499c1.261-.063 2.204-1.873 2.106-4.051-.098-2.183-1.207-3.912-2.48-3.856-1.27.057-2.216 1.883-2.112 4.074.105 2.18 1.222 3.896 2.486 3.833m6.178 4.956c1.286-.02 2.326-1.827 2.324-4.045-.003-2.223-1.049-4.022-2.343-4.006-1.293.014-2.338 1.839-2.33 4.07.011 2.223 1.063 4 2.35 3.98m6.787-3.77c-1.487-.026-2.77 1.803-2.868 4.073-.095 2.262 1.028 4.107 2.507 4.126 1.473.017 2.751-1.791 2.853-4.047.106-2.263-1.012-4.125-2.492-4.151M4.828 30.895c-1.132.255-1.619 2.04-1.084 3.982.532 1.934 1.871 3.288 2.993 3.029 1.123-.256 1.608-2.03 1.088-3.961-.525-1.938-1.867-3.308-2.997-3.05m5.385 6.73c-1.163.202-1.77 1.982-1.357 3.969.412 1.979 1.68 3.412 2.835 3.207 1.155-.204 1.764-1.968 1.36-3.944-.406-1.985-1.677-3.434-2.838-3.232m6.182 5.492c-1.195.149-1.924 1.924-1.627 3.96.296 2.029 1.497 3.545 2.685 3.394 1.182-.151 1.911-1.911 1.624-3.937-.29-2.031-1.489-3.564-2.682-3.417m6.077 5.4c-1.226.098-2.07 1.87-1.89 3.955.181 2.079 1.315 3.677 2.533 3.579 1.213-.101 2.057-1.861 1.885-3.934-.174-2.08-1.306-3.694-2.528-3.6m8.342 8.537c-.153-2.125-1.292-3.776-2.539-3.677-1.252.1-2.135 1.913-1.972 4.045.16 2.123 1.298 3.756 2.541 3.654 1.244-.108 2.123-1.903 1.97-4.022m3.6 1.36c-1.278.079-2.24 1.916-2.143 4.098.097 2.179 1.208 3.87 2.476 3.788 1.27-.081 2.228-1.901 2.138-4.074-.088-2.177-1.195-3.887-2.472-3.811m7.161 4.656c-1.52-.048-2.88 1.728-3.04 3.962-.158 2.229.94 4.06 2.454 4.098 1.506.042 2.86-1.72 3.026-3.938.166-2.224-.926-4.074-2.44-4.122m-26.439-8.6c-.81.532-1.059 2.009-.549 3.3.51 1.294 1.588 1.909 2.401 1.373.813-.535 1.055-2.016.544-3.303-.513-1.287-1.584-1.898-2.396-1.37m5.548 5.8c-.96.792-1.297 2.604-.754 4.049.546 1.45 1.77 1.98 2.728 1.186.96-.793 1.292-2.606.748-4.053-.546-1.44-1.762-1.972-2.722-1.182m5.073 5.68c-.79 1.17-.817 3.062-.063 4.223.754 1.16 2.001 1.153 2.784-.021.786-1.17.811-3.057.061-4.217-.749-1.157-1.997-1.15-2.782.015m5.321 5.74c-.6 1.37-.294 3.215.693 4.118.983.9 2.266.516 2.862-.858.593-1.371.284-3.206-.695-4.104-.98-.9-2.26-.522-2.86.844m9.582 3.88c-1.09-.83-2.48-.177-3.102 1.46-.626 1.642-.24 3.654.86 4.486 1.095.829 2.487.166 3.104-1.481.615-1.637.23-3.635-.862-4.464M76.977 11.26c1.93.847 3.918.695 4.437-.341.52-1.036-.63-2.558-2.566-3.401-1.922-.836-3.895-.675-4.41.353-.514 1.032.617 2.545 2.54 3.389m-8.048 1.03c2.001.578 3.933.133 4.311-.996.38-1.134-.945-2.516-2.952-3.09-2-.57-3.919-.117-4.29 1.01-.37 1.124.938 2.5 2.931 3.077m-8.118 1.979c1.984.685 3.946.328 4.381-.802.432-1.134-.836-2.605-2.827-3.287-1.985-.677-3.934-.31-4.358.815-.427 1.126.828 2.592 2.804 3.274m-5.962-1.79c-1.97-.784-3.948-.504-4.425.62-.478 1.125.72 2.678 2.682 3.47 1.968.794 3.96.523 4.446-.608.482-1.132-.729-2.692-2.703-3.482m-11.296 3.048c-.526 1.126.621 2.764 2.566 3.66 1.954.9 3.976.719 4.511-.411.538-1.132-.62-2.78-2.585-3.675-1.954-.893-3.963-.7-4.492.426m.06 6.219c.585-1.13-.522-2.862-2.473-3.864-1.94-1.002-3.984-.892-4.559.233-.578 1.126.52 2.848 2.452 3.849 1.941 1.008 3.993.912 4.58-.218m-7.433 3.25c.634-1.127-.426-2.943-2.363-4.052-1.927-1.103-3.996-1.082-4.622.044-.622 1.124.423 2.93 2.344 4.036 1.926 1.11 4.007 1.1 4.641-.027m-7.112 3.755c.764-1.276-.172-3.3-2.092-4.52-1.915-1.214-4.072-1.163-4.828.108-.75 1.268.177 3.279 2.08 4.496 1.906 1.22 4.076 1.187 4.84-.084m32.235-22.38c1.94.514 3.797.036 4.141-1.071.342-1.11-.962-2.421-2.906-2.932-1.943-.506-3.785-.021-4.12 1.082-.34 1.1.951 2.409 2.885 2.92m-8.6 1.07c1.922.642 3.811.266 4.218-.841.406-1.11-.832-2.524-2.759-3.161-1.919-.632-3.797-.247-4.195.855-.399 1.1.82 2.512 2.736 3.148m-7.929 2.38c1.905.766 3.83.493 4.301-.613.468-1.11-.706-2.63-2.617-3.39-1.905-.758-3.82-.474-4.282.628-.462 1.103.7 2.613 2.598 3.375m-7.797 2.337c1.888.89 3.854.717 4.383-.39.527-1.107-.586-2.725-2.48-3.615-1.89-.88-3.843-.696-4.366.409-.519 1.099.58 2.709 2.463 3.596M27.3 11.014c-.53 1.128.584 2.789 2.497 3.715 1.917.928 3.914.77 4.454-.36.538-1.133-.59-2.807-2.516-3.731-1.92-.922-3.904-.753-4.435.376m-7.48 2.498c-.563 1.14.537 2.879 2.461 3.889 1.93 1.012 3.963.91 4.534-.233.575-1.15-.536-2.898-2.474-3.906-1.934-1.006-3.956-.892-4.52.25m-7.304 2.987c-.788 1.287.061 3.34 1.898 4.593 1.844 1.258 3.99 1.237 4.79-.053.801-1.291-.058-3.36-1.913-4.616-1.848-1.25-3.983-1.213-4.775.076M34.9 1.709c.06.972 1.216 1.923 2.59 2.122 1.368.2 2.434-.421 2.38-1.388-.054-.968-1.209-1.922-2.582-2.125a3.25 3.25 0 0 0-.492-.038h-.015c-1.12-.002-1.93.58-1.88 1.43m-5.21 4.403c1.522.248 2.588-.542 2.384-1.766-.203-1.227-1.606-2.426-3.13-2.675-1.527-.253-2.6.54-2.392 1.77.21 1.226 1.612 2.42 3.137 2.67m-6.45 2.205c1.38-.071 2-1.153 1.38-2.417-.619-1.266-2.244-2.24-3.628-2.167-1.38.073-1.995 1.159-1.374 2.425.623 1.262 2.244 2.228 3.622 2.159m-7.444 1.923c1.271-.397 1.581-1.695.7-2.898-.887-1.208-2.638-1.861-3.913-1.46-1.273.402-1.577 1.706-.687 2.907.886 1.2 2.634 1.85 3.9 1.45m-6.96 3.756c1.263-.528 1.393-2.056.287-3.415-1.11-1.36-3.043-2.035-4.312-1.5-1.266.536-1.388 2.072-.27 3.429 1.11 1.353 3.032 2.017 4.294 1.486m38.571 63.399c-1.702 1.24-2.57 3.037-1.936 4.007.637.967 2.532.739 4.23-.508 1.691-1.246 2.543-3.031 1.912-3.993-.633-.961-2.514-.744-4.206.494m3.153-7.477c-1.506 1.439-2.092 3.335-1.304 4.23.787.896 2.65.448 4.154-1 1.495-1.443 2.068-3.33 1.283-4.218-.786-.887-2.632-.443-4.133.988m2.367-8.012c-1.59 1.37-2.266 3.247-1.506 4.188.763.943 2.673.586 4.26-.791 1.582-1.376 2.244-3.245 1.484-4.177-.758-.932-2.653-.586-4.238.78m1.885-7.818c-1.674 1.305-2.444 3.16-1.709 4.15.734.988 2.692.722 4.365-.587 1.67-1.31 2.422-3.161 1.69-4.14-.734-.98-2.676-.721-4.346.577m5.698-7.736c-.708-1.021-2.7-.85-4.453.38-1.759 1.237-2.619 3.077-1.91 4.108.707 1.03 2.715.857 4.474-.39 1.756-1.24 2.6-3.073 1.89-4.098m1.266-7.33c-.68-1.063-2.72-.981-4.559.187-1.844 1.172-2.795 2.994-2.113 4.07.681 1.075 2.737.989 4.585-.196 1.84-1.178 2.772-2.994 2.087-4.061m1.227-7.826c-.657-1.105-2.745-1.107-4.666-.002-1.928 1.109-2.966 2.91-2.308 4.026.657 1.115 2.757 1.113 4.69-.005 1.923-1.115 2.943-2.912 2.284-4.02m.643-7.775c-.717-1.29-2.92-1.495-4.93-.464-2.016 1.037-3.073 2.929-2.359 4.227.716 1.304 2.938 1.508 4.956.462 2.013-1.043 3.053-2.936 2.333-4.225m-4.139 42.879c-1.422 1.42-1.94 3.263-1.155 4.118.785.853 2.577.387 3.994-1.042 1.416-1.422 1.92-3.26 1.136-4.103-.78-.846-2.56-.386-3.975 1.027m3.397-7.973c-1.52 1.34-2.144 3.164-1.39 4.07.753.909 2.598.55 4.113-.795 1.514-1.343 2.125-3.16 1.373-4.058-.752-.9-2.585-.552-4.096.783m1.926-8.052c-1.619 1.262-2.352 3.066-1.63 4.026.723.964 2.625.712 4.244-.56 1.613-1.265 2.331-3.063 1.61-4.014-.723-.956-2.61-.71-4.224.548m1.897-7.915c-1.718 1.187-2.556 2.969-1.865 3.986.693 1.014 2.65.865 4.37-.33 1.712-1.191 2.535-2.971 1.842-3.975-.689-1.006-2.636-.863-4.347.319m1.39-7.5c-1.77 1.192-2.635 2.997-1.927 4.032.71 1.036 2.721.9 4.49-.3 1.762-1.197 2.611-2.998 1.9-4.026-.705-1.025-2.702-.895-4.464.294m1.467-7.84c-1.844 1.159-2.779 2.97-2.077 4.04.701 1.074 2.774.993 4.622-.18 1.84-1.165 2.755-2.97 2.054-4.032-.706-1.061-2.76-.984-4.599.172m5.686-7.99c-.716-1.326-2.919-1.624-4.925-.665-2.013.962-3.074 2.829-2.362 4.167.714 1.342 2.934 1.64 4.952.668 2.007-.973 3.051-2.838 2.335-4.17m1.54 26.785c-.872-.437-2.274.088-3.14 1.174-.86 1.084-.856 2.316.007 2.754.865.442 2.27-.08 3.135-1.163.867-1.088.865-2.324-.002-2.765m2.696-8.084c-1.166-.437-2.905.176-3.885 1.365-.979 1.19-.836 2.512.326 2.953 1.163.438 2.906-.17 3.89-1.363.986-1.195.837-2.518-.33-2.955m1.133-7.363c-1.404-.097-3.05.819-3.685 2.048-.632 1.228-.006 2.305 1.397 2.406 1.407.1 3.06-.815 3.694-2.047.633-1.231.004-2.308-1.406-2.407m.798-7.914c-1.483.164-2.92 1.346-3.215 2.644-.294 1.296.67 2.22 2.155 2.06 1.49-.16 2.935-1.346 3.227-2.648.295-1.304-.679-2.222-2.167-2.056m1.288-8.315c1.734-.282 3.001.593 2.83 1.957-.178 1.368-1.73 2.7-3.465 2.977-1.729.273-2.986-.607-2.808-1.966.177-1.358 1.717-2.686 3.443-2.968" mask="url(#b)"/>
        </g>
        <path fill="#FFF" d="M366.771 47.324v9.135h5.31l-.225 1.575h-6.9v-10.71zM378.05 47.324h7.125v1.56h-5.31v2.85h5.01v1.575h-5.01v3.164h5.595l-.21 1.561h-7.2zM397.386 53.789l-1.59-4.409-1.575 4.409h3.165zm-2.445-6.465h1.8l4.08 10.71h-1.935l-1.006-2.73h-4.154l-.99 2.73h-1.875l4.08-10.71zM410.196 56.49c.63 0 1.167-.09 1.612-.27a2.73 2.73 0 0 0 1.096-.782 3.19 3.19 0 0 0 .622-1.215c.13-.468.195-1 .195-1.589 0-1.18-.25-2.102-.75-2.768-.501-.664-1.32-.997-2.46-.997h-2.07v7.62h1.755zm.3-9.166c.79 0 1.5.107 2.13.322.63.216 1.165.543 1.605.984.44.44.777.992 1.013 1.656.234.666.352 1.443.352 2.333 0 .89-.126 1.673-.375 2.348a4.49 4.49 0 0 1-1.08 1.694 4.509 4.509 0 0 1-1.717 1.027c-.675.231-1.438.346-2.288.346h-3.51v-10.71h3.87zM432.395 48.9h-3.39v-1.576h8.58V48.9h-3.375v9.135h-1.815zM443.51 47.324h1.814v4.335h4.815v-4.335h1.815v10.71h-1.815V53.34h-4.815v4.695h-1.815zM458.734 47.324h7.125v1.56h-5.31v2.85h5.01v1.575h-5.01v3.164h5.595l-.21 1.561h-7.2zM481.13 47.324l1.978 8.13 2.041-8.07h1.935l2.07 8.054 1.92-8.114h1.935l-2.955 10.71h-1.815l-2.175-8.43-2.145 8.43h-1.755l-3.075-10.71zM503.54 53.789l-1.591-4.409-1.574 4.409h3.165zm-2.445-6.465h1.799l4.08 10.71h-1.934l-1.006-2.73h-4.154l-.99 2.73h-1.875l4.08-10.71zM513.815 53.579l-3.721-6.255h2.026l2.58 4.65 2.639-4.65h1.92l-3.644 6.255v4.455h-1.8zM106.015 32.237v6.754h19.592c3.042 0 5.11.547 6.204 1.58 1.095 1.035 1.642 2.983 1.642 5.843v4.318c0 2.86-.547 4.808-1.642 5.843-1.094 1.032-3.162 1.58-6.204 1.58h-19.41c-3.042 0-5.11-.548-6.205-1.58-1.096-1.035-1.643-2.984-1.643-5.843v-.85l6.45-1.34v3.711h22.206v-7.178h-19.59c-3.042 0-5.112-.547-6.145-1.584-1.094-1.033-1.645-2.979-1.645-5.838v-3.47c0-2.857.551-4.806 1.645-5.839 1.033-1.034 3.103-1.58 6.144-1.58h17.825c2.922 0 4.99.485 6.083 1.52 1.157.974 1.704 2.797 1.704 5.355v.666l-6.449 1.521v-3.589h-20.562zM141.981 27.033h30.681l-2.256 5.353h-21.124v6.997h14.479l-2.253 5.353h-12.226v7.787h23.682l-2.254 5.904h-28.729zM180.184 26.762h4.987l20.958 18.495c1.523 1.216 2.616 2.25 3.59 3.406-.12-1.764-.24-2.98-.24-3.71-.065-.73-.065-1.339-.065-1.703V29.016l6.571-2.254v31.394h-4.99l-21.928-19.408c-1.096-.975-1.888-1.704-2.617-2.554.181 1.944.305 3.708.305 4.986V55.9l-6.57 2.256V26.762zM241.632 58.155h-7.3V32.36h-11.274l-2.254-5.598h34.356l-2.256 5.598h-11.272zM261.166 26.762h7.3V55.9l-7.3 2.257zM291.285 26.762L273.52 58.157h7.303l3.649-6.878h19.894l3.77 6.878h8.214l-18.007-31.395h-7.058zm3.287 6.084l6.75 12.776h-13.748l6.998-12.776z"/>
        <mask id="d" fill="#fff">
            <use xlink:href="#c"/>
        </mask>
        <path fill="#FFF" d="M337.816 58.426h1.408V26.48h-1.408z" mask="url(#d)"/>
    </g>
</svg>
